<!-- Generated by IcoMoon.io -->
<svg version="1.1" xmlns="http://www.w3.org/2000/svg" width="65" height="32" viewBox="0 0 65 32">
<title>logo4</title>
<path fill="#afb1b8" stroke="#afb1b8" stroke-linejoin="miter" stroke-linecap="butt" stroke-miterlimit="4" stroke-width="0.7619" d="M10.014 10.364h0.002c1.661 0 2.927 1.186 2.927 2.559v0.002c0 1.372-1.267 2.559-2.927 2.559h-0.002c-1.66 0-2.927-1.187-2.927-2.559v-0.002c0-1.373 1.267-2.56 2.927-2.56zM16.053 21c0.034-0.001-0.099 0.018-0.232 0.035l-0.157 0.017v-12.008c0.005-2.139 0.963-4.201 2.683-5.73 1.722-1.528 4.063-2.396 6.514-2.4 2.45 0.005 4.79 0.873 6.51 2.402 1.719 1.528 2.677 3.589 2.682 5.727v0.002c0 2.504-1.134 4.503-2.871 6.109-1.745 1.613-4.088 2.817-6.458 3.703-2.367 0.886-4.739 1.448-6.521 1.787-0.451 0.098-1.182 0.223-1.919 0.329l-0.231 0.027zM8.788 25.56c0-0.392-0.132-0.771-0.37-1.090-0.243-0.315-0.567-0.557-0.942-0.695l-0.015-0.005c-0.238-0.090-0.513-0.142-0.8-0.142-0.144 0-0.284 0.013-0.421 0.038l0.014-0.002c-0.419 0.074-0.786 0.256-1.082 0.517l0.002-0.002c-0.3 0.267-0.51 0.612-0.597 0.995-0.027 0.116-0.042 0.249-0.042 0.385 0 0.274 0.062 0.534 0.173 0.765l-0.005-0.011c0.166 0.358 0.445 0.656 0.792 0.862 0.24 0.142 0.507 0.238 0.783 0.284v0.037h0.381c0.274 0 0.546-0.048 0.802-0.142s0.489-0.233 0.688-0.411c0.2-0.178 0.36-0.391 0.47-0.629s0.168-0.495 0.166-0.756zM8.788 25.56l-0.381 0.002h0.381v-0.002zM12.804 17.358c0.050-0.008 0.096-0.013 0.139-0.019v8.222c-0.005 1.454-0.655 2.856-1.829 3.899-1.175 1.044-2.775 1.638-4.453 1.643-1.678-0.005-3.278-0.6-4.453-1.643s-1.824-2.446-1.829-3.899c0-1.702 0.769-3.064 1.96-4.165 1.198-1.108 2.812-1.939 4.455-2.553 1.639-0.613 3.282-1.003 4.518-1.238 0.617-0.118 1.131-0.197 1.49-0.247z"></path>
<path fill="#afb1b8" d="M18.842 24.336v3.25h-0.67v-3.251h0.67zM20.137 25.725v0.522h-1.478v-0.522h1.478zM20.293 24.336v0.525h-1.634v-0.525h1.634zM23.351 25.886v0.154c0 0.247-0.034 0.469-0.101 0.665-0.064 0.194-0.161 0.361-0.285 0.504l0.002-0.002c-0.122 0.137-0.267 0.242-0.437 0.315-0.168 0.073-0.355 0.11-0.56 0.11s-0.391-0.037-0.561-0.11c-0.172-0.076-0.318-0.182-0.436-0.314l-0.001-0.001c-0.124-0.141-0.222-0.309-0.285-0.492l-0.003-0.010c-0.064-0.19-0.101-0.408-0.101-0.636 0-0.010 0-0.020 0-0.030l-0 0.002v-0.155c0-0.248 0.034-0.47 0.101-0.665s0.162-0.363 0.283-0.502c0.119-0.134 0.265-0.241 0.43-0.314l0.008-0.003c0.169-0.073 0.356-0.109 0.56-0.109 0.206 0 0.392 0.036 0.56 0.109 0.17 0.073 0.315 0.179 0.437 0.317 0.123 0.139 0.219 0.306 0.286 0.503 0.069 0.194 0.103 0.416 0.103 0.665zM22.675 26.040v-0.158c0-0.173-0.016-0.325-0.047-0.456-0.028-0.125-0.076-0.236-0.141-0.334l0.002 0.004c-0.057-0.084-0.132-0.152-0.22-0.199l-0.003-0.002c-0.084-0.044-0.184-0.069-0.29-0.069-0.004 0-0.008 0-0.012 0h0.001c-0.114 0-0.213 0.023-0.302 0.069-0.090 0.049-0.165 0.117-0.22 0.199l-0.001 0.002c-0.061 0.095-0.108 0.206-0.134 0.324l-0.001 0.007c-0.030 0.129-0.047 0.278-0.047 0.43 0 0.009 0 0.018 0 0.027v-0.001 0.158c0 0.171 0.015 0.322 0.047 0.455 0.030 0.131 0.077 0.242 0.138 0.333 0.061 0.089 0.136 0.157 0.223 0.203s0.188 0.069 0.302 0.069c0.113 0 0.213-0.023 0.301-0.069 0.091-0.049 0.165-0.118 0.22-0.201l0.001-0.002c0.059-0.091 0.105-0.202 0.136-0.333 0.031-0.133 0.046-0.284 0.046-0.455zM25.525 26.736c0-0.003 0-0.006 0-0.009 0-0.053-0.010-0.103-0.027-0.15l0.001 0.003c-0.020-0.052-0.052-0.096-0.093-0.129l-0.001-0c-0.056-0.046-0.12-0.086-0.189-0.117l-0.005-0.002c-0.087-0.040-0.194-0.081-0.304-0.115l-0.019-0.005c-0.171-0.055-0.31-0.109-0.445-0.17l0.026 0.010c-0.133-0.060-0.247-0.13-0.352-0.211l0.004 0.003c-0.096-0.076-0.175-0.169-0.234-0.274l-0.002-0.005c-0.054-0.102-0.085-0.224-0.085-0.353 0-0.006 0-0.011 0-0.017v0.001c-0-0.003-0-0.007-0-0.010 0-0.131 0.033-0.254 0.091-0.362l-0.002 0.004c0.059-0.112 0.143-0.207 0.25-0.286 0.107-0.081 0.234-0.142 0.38-0.185s0.309-0.065 0.484-0.065c0.24 0 0.45 0.043 0.627 0.13 0.179 0.086 0.317 0.204 0.415 0.354 0.1 0.151 0.15 0.322 0.15 0.516h-0.665c0-0.003 0-0.007 0-0.010 0-0.088-0.023-0.171-0.062-0.242l0.001 0.003c-0.041-0.074-0.102-0.133-0.176-0.17l-0.002-0.001c-0.081-0.040-0.176-0.064-0.277-0.064-0.008 0-0.015 0-0.023 0l0.001-0c-0.007-0-0.015-0-0.023-0-0.096 0-0.188 0.020-0.272 0.055l0.005-0.002c-0.072 0.030-0.131 0.078-0.174 0.14l-0.001 0.001c-0.036 0.054-0.058 0.12-0.058 0.192 0 0.002 0 0.003 0 0.005v-0c0 0.055 0.014 0.105 0.040 0.149 0.034 0.050 0.075 0.091 0.123 0.124l0.002 0.001c0.055 0.039 0.122 0.076 0.203 0.11s0.174 0.068 0.28 0.101c0.177 0.053 0.332 0.114 0.466 0.181 0.136 0.067 0.248 0.142 0.339 0.226s0.16 0.178 0.206 0.283 0.069 0.226 0.069 0.36c0 0.009 0.001 0.020 0.001 0.031 0 0.259-0.126 0.488-0.32 0.63l-0.002 0.002c-0.104 0.078-0.229 0.136-0.373 0.176s-0.305 0.061-0.484 0.061c-0.161 0-0.32-0.021-0.475-0.062-0.162-0.045-0.304-0.111-0.432-0.198l0.005 0.003c-0.125-0.086-0.227-0.197-0.301-0.326l-0.003-0.005c-0.076-0.134-0.114-0.293-0.114-0.475h0.672c0 0.101 0.015 0.187 0.047 0.257 0.030 0.068 0.074 0.126 0.13 0.169l0.001 0.001c0.058 0.043 0.127 0.075 0.202 0.093l0.004 0.001c0.080 0.019 0.168 0.029 0.264 0.029 0.007 0 0.015 0 0.024 0 0.094 0 0.184-0.018 0.267-0.052l-0.005 0.002c0.132-0.053 0.223-0.18 0.223-0.328 0-0.002 0-0.003-0-0.005v0zM28.104 24.336v3.25h-0.668v-3.251h0.668zM29.103 24.336v0.525h-2.651v-0.525h2.651zM31.666 27.064v0.523h-1.73v-0.523h1.73zM30.155 24.336v3.25h-0.67v-3.251h0.67zM31.44 25.66v0.509h-1.504v-0.509h1.504zM31.663 24.336v0.525h-1.727v-0.525h1.727zM32.056 24.336h1.211c0.249 0 0.462 0.038 0.642 0.112s0.318 0.184 0.414 0.33c0.098 0.146 0.145 0.325 0.145 0.538 0 0.174-0.029 0.324-0.088 0.45-0.059 0.124-0.143 0.228-0.246 0.309l-0.002 0.001c-0.107 0.082-0.231 0.148-0.364 0.193l-0.009 0.003-0.212 0.112h-1.054l-0.005-0.523h0.784c0.006 0 0.014 0 0.022 0 0.098 0 0.191-0.023 0.274-0.064l-0.004 0.002c0.075-0.039 0.135-0.099 0.173-0.172l0.001-0.002c0.038-0.072 0.060-0.157 0.060-0.247 0-0.004-0-0.009-0-0.013v0.001c0-0.005 0-0.010 0-0.015 0-0.093-0.021-0.18-0.060-0.259l0.002 0.003c-0.039-0.076-0.1-0.136-0.175-0.173l-0.002-0.001c-0.081-0.039-0.175-0.061-0.276-0.061-0.008 0-0.015 0-0.023 0l0.001-0h-0.542v2.726h-0.67v-3.251zM33.874 27.586l-0.741-1.448 0.708-0.005 0.75 1.422v0.030h-0.716zM37.389 26.428h-0.828v-0.523h0.828c0.008 0 0.017 0.001 0.027 0.001 0.104 0 0.202-0.023 0.29-0.065l-0.004 0.002c0.077-0.040 0.138-0.102 0.176-0.177l0.001-0.002c0.035-0.078 0.055-0.168 0.055-0.263s-0.020-0.186-0.057-0.267l0.002 0.004c-0.038-0.084-0.099-0.153-0.175-0.2l-0.002-0.001c-0.083-0.048-0.182-0.077-0.288-0.077-0.009 0-0.017 0-0.026 0.001l0.001-0h-0.596v2.726h-0.67v-3.25h1.266c0.254 0 0.472 0.046 0.654 0.139 0.183 0.091 0.323 0.216 0.42 0.377s0.145 0.344 0.145 0.552c0 0.21-0.048 0.391-0.145 0.545-0.097 0.152-0.236 0.271-0.419 0.354s-0.4 0.125-0.654 0.125zM41.25 27.064v0.523h-1.73v-0.523h1.73zM39.739 24.336v3.25h-0.67v-3.251h0.67zM41.025 25.66v0.509h-1.504v-0.509h1.504zM41.248 24.336v0.525h-1.727v-0.525h1.727zM43.139 24.336v3.25h-0.667v-3.251h0.667zM44.139 24.336v0.525h-2.651v-0.525h2.651zM46.702 27.064v0.523h-1.73v-0.523h1.73zM45.19 24.336v3.25h-0.67v-3.251h0.67zM46.476 25.661v0.509h-1.505v-0.509h1.505zM46.699 24.337v0.525h-1.728v-0.525h1.728zM47.092 24.337h1.213c0.248 0 0.462 0.038 0.641 0.112 0.18 0.074 0.318 0.184 0.415 0.33s0.145 0.325 0.145 0.538c0 0.174-0.030 0.324-0.089 0.45-0.059 0.124-0.143 0.228-0.246 0.309l-0.002 0.001c-0.107 0.082-0.231 0.148-0.364 0.193l-0.009 0.003-0.212 0.112h-1.054l-0.004-0.523h0.783c0.007 0 0.015 0 0.022 0 0.098 0 0.191-0.023 0.274-0.064l-0.004 0.002c0.075-0.039 0.134-0.099 0.173-0.172l0.001-0.002c0.038-0.072 0.061-0.158 0.061-0.249 0-0.004-0-0.007-0-0.011v0.001c0-0.004 0-0.009 0-0.014 0-0.093-0.022-0.181-0.060-0.26l0.002 0.003c-0.039-0.076-0.1-0.136-0.174-0.173l-0.002-0.001c-0.081-0.039-0.175-0.061-0.276-0.061-0.008 0-0.015 0-0.023 0l0.001-0h-0.542v2.726h-0.67v-3.252zM48.909 27.587l-0.741-1.448 0.709-0.005 0.749 1.422v0.030h-0.716zM51.713 26.737c0-0.002 0-0.005 0-0.007 0-0.054-0.010-0.105-0.028-0.152l0.001 0.003c-0.020-0.052-0.052-0.096-0.093-0.129l-0.001-0c-0.056-0.046-0.12-0.086-0.189-0.117l-0.005-0.002c-0.087-0.040-0.194-0.081-0.304-0.115l-0.019-0.005c-0.171-0.055-0.31-0.109-0.445-0.17l0.026 0.010c-0.133-0.060-0.248-0.13-0.353-0.211l0.004 0.003c-0.096-0.076-0.175-0.169-0.234-0.274l-0.002-0.005c-0.054-0.102-0.086-0.224-0.086-0.353 0-0.006 0-0.011 0-0.017v0.001c-0-0.003-0-0.007-0-0.010 0-0.131 0.033-0.254 0.091-0.362l-0.002 0.004c0.060-0.112 0.143-0.207 0.251-0.286 0.107-0.081 0.233-0.142 0.379-0.185s0.309-0.065 0.484-0.065c0.24 0 0.45 0.043 0.627 0.13 0.179 0.086 0.318 0.204 0.415 0.354 0.1 0.151 0.15 0.322 0.15 0.516h-0.665c0-0.003 0-0.007 0-0.010 0-0.088-0.023-0.171-0.062-0.242l0.001 0.003c-0.041-0.074-0.102-0.133-0.176-0.17l-0.002-0.001c-0.081-0.040-0.176-0.064-0.277-0.064-0.008 0-0.015 0-0.023 0l0.001-0c-0.007-0-0.015-0-0.023-0-0.096 0-0.188 0.020-0.272 0.055l0.005-0.002c-0.072 0.030-0.132 0.078-0.174 0.14l-0.001 0.001c-0.036 0.054-0.058 0.12-0.058 0.192 0 0.002 0 0.003 0 0.005v-0c0 0.055 0.014 0.105 0.040 0.149 0.034 0.050 0.075 0.091 0.123 0.124l0.002 0.001c0.055 0.039 0.123 0.076 0.203 0.11s0.173 0.068 0.279 0.101c0.177 0.053 0.332 0.114 0.466 0.181 0.136 0.067 0.248 0.142 0.339 0.226s0.16 0.178 0.206 0.283 0.069 0.226 0.069 0.36c0 0.009 0.001 0.020 0.001 0.031 0 0.259-0.126 0.488-0.32 0.63l-0.002 0.002c-0.104 0.078-0.228 0.136-0.372 0.176s-0.306 0.061-0.485 0.061c-0.161 0-0.32-0.021-0.475-0.062-0.162-0.045-0.304-0.111-0.432-0.198l0.005 0.003c-0.125-0.086-0.227-0.197-0.301-0.326l-0.003-0.005c-0.076-0.134-0.114-0.293-0.114-0.475h0.672c0 0.101 0.015 0.187 0.047 0.257 0.030 0.069 0.075 0.126 0.131 0.169l0.001 0.001c0.058 0.043 0.127 0.075 0.202 0.093l0.004 0.001c0.080 0.019 0.168 0.029 0.263 0.029 0.007 0 0.015 0 0.024 0 0.094 0 0.184-0.018 0.267-0.052l-0.005 0.002c0.132-0.053 0.223-0.18 0.223-0.328 0-0.002 0-0.003-0-0.005v0z"></path>
<path fill="#afb1b8" d="M18.842 24.336h0.762v-0.762h-0.762v0.762zM18.842 27.586v0.762h0.762v-0.762h-0.762zM18.172 27.586h-0.762v0.762h0.762v-0.762zM18.172 24.336v-0.762h-0.762v0.762h0.762zM20.136 25.725h0.762v-0.762h-0.762v0.762zM20.136 26.247v0.762h0.762v-0.762h-0.762zM18.659 26.247h-0.762v0.762h0.762v-0.762zM18.659 25.725v-0.762h-0.762v0.762h0.762zM20.293 24.336h0.762v-0.762h-0.762v0.762zM20.293 24.861v0.762h0.762v-0.762h-0.762zM18.659 24.861h-0.762v0.762h0.762v-0.762zM18.659 24.336v-0.762h-0.762v0.762h0.762zM18.080 24.336v3.25h1.524v-3.251h-1.524zM18.842 26.824h-0.67v1.524h0.67v-1.524zM18.934 27.586v-3.251h-1.524v3.25h1.524zM18.172 25.098h0.67v-1.524h-0.67v1.524zM19.374 25.724v0.523h1.524v-0.522h-1.524zM20.136 25.485h-1.477v1.524h1.478v-1.524zM19.421 26.247v-0.522h-1.524v0.522h1.524zM18.659 26.487h1.478v-1.524h-1.478v1.524zM19.531 24.336v0.525h1.524v-0.525h-1.524zM20.293 24.099h-1.634v1.524h1.634v-1.524zM19.421 24.861v-0.525h-1.524v0.525h1.524zM18.659 25.098h1.634v-1.524h-1.634v1.524zM22.967 27.207l0.569 0.507 0.002-0.003-0.571-0.504zM22.53 27.522l-0.301-0.7-0.002 0.002 0.303 0.699zM21.41 27.522l-0.304 0.699 0.002 0.002 0.301-0.701zM20.971 27.207l-0.568 0.507 0.003 0.003 0.565-0.51zM20.683 26.704l-0.721 0.246 0.002 0.005 0.719-0.251zM20.683 25.22l0.721 0.248v-0.002l-0.721-0.246zM20.967 24.718l-0.568-0.507-0.003 0.004 0.571 0.504zM21.405 24.401l-0.301-0.7-0.002 0.002 0.302 0.699zM22.525 24.401l-0.303 0.699 0.002 0.001 0.301-0.7zM22.962 24.718l-0.571 0.504 0.003 0.003 0.568-0.507zM23.248 25.221l-0.721 0.245 0.002 0.007 0.718-0.253zM22.266 24.894l-0.354 0.674 0.009 0.005 0.345-0.679zM21.664 24.894l0.35 0.677 0.004-0.002-0.354-0.674zM21.443 25.095l-0.629-0.43-0.005 0.008 0.634 0.422zM21.306 26.494l-0.741 0.175v0.002l0.742-0.177zM21.445 26.827l-0.632 0.425 0.004 0.005 0.629-0.43zM22.491 26.827l0.634 0.423 0.004-0.005-0.638-0.418zM22.628 26.494l0.741 0.177v-0.002l-0.741-0.175zM22.59 25.885v0.155h1.524v-0.155h-1.524zM22.59 26.040c0 0.178-0.025 0.315-0.061 0.419l1.443 0.491c0.099-0.289 0.141-0.596 0.141-0.91h-1.524zM22.529 26.459c-0.030 0.094-0.075 0.175-0.134 0.245l0.001-0.001 1.143 1.008c0.197-0.222 0.338-0.48 0.434-0.76l-1.442-0.491zM22.398 26.7c-0.046 0.052-0.103 0.093-0.167 0.121l-0.003 0.001 0.602 1.4c0.271-0.117 0.509-0.287 0.706-0.508l-1.138-1.013zM22.226 26.822c-0.071 0.030-0.154 0.047-0.241 0.047-0.006 0-0.011-0-0.017-0l0.001 0v1.524c0.297 0 0.588-0.053 0.863-0.173l-0.606-1.397zM21.97 26.869c-0.004 0-0.009 0-0.015 0-0.088 0-0.172-0.018-0.249-0.050l0.004 0.002-0.602 1.4c0.274 0.117 0.564 0.171 0.861 0.171v-1.524zM21.712 26.823c-0.069-0.030-0.128-0.073-0.175-0.126l-0-0-1.131 1.021c0.196 0.217 0.431 0.386 0.699 0.503l0.606-1.397zM21.54 26.699c-0.059-0.069-0.106-0.151-0.136-0.24l-0.001-0.005-1.438 0.501c0.098 0.28 0.241 0.537 0.439 0.759l1.137-1.015zM21.405 26.459c-0.038-0.117-0.060-0.252-0.060-0.392 0-0.010 0-0.019 0-0.029l-0 0.001h-1.524c0 0.315 0.043 0.622 0.142 0.91l1.442-0.491zM21.345 26.040v-0.155h-1.524v0.155h1.524zM21.345 25.885c0-0.181 0.024-0.316 0.059-0.418l-1.442-0.495c-0.099 0.29-0.142 0.597-0.142 0.913h1.524zM21.405 25.466c0.030-0.094 0.075-0.175 0.134-0.245l-0.001 0.001-1.143-1.008c-0.196 0.222-0.338 0.48-0.433 0.76l1.442 0.491zM21.535 25.225c0.047-0.053 0.104-0.095 0.169-0.124l0.003-0.001-0.606-1.398c-0.271 0.117-0.507 0.289-0.703 0.508l1.137 1.015zM21.705 25.101c0.072-0.030 0.155-0.047 0.243-0.047 0.006 0 0.011 0 0.017 0l-0.001-0v-1.524c-0.296 0-0.587 0.053-0.861 0.171l0.602 1.4zM21.964 25.054c0.114 0 0.197 0.020 0.258 0.046l0.606-1.397c-0.249-0.109-0.539-0.172-0.844-0.172-0.007 0-0.013 0-0.020 0h0.001v1.524zM22.224 25.101c0.066 0.028 0.122 0.069 0.167 0.121l0 0.001 1.143-1.008c-0.192-0.218-0.429-0.391-0.696-0.508l-0.013-0.005-0.602 1.4zM22.394 25.225c0.058 0.068 0.104 0.148 0.132 0.236l0.001 0.005 1.442-0.491c-0.1-0.295-0.249-0.55-0.441-0.767l0.002 0.002-1.137 1.015zM22.53 25.473c0.035 0.099 0.059 0.233 0.059 0.412h1.524c0-0.317-0.043-0.626-0.146-0.917l-1.438 0.505zM23.436 26.040v-0.158h-1.524v0.158h1.524zM23.436 25.881c0-0.216-0.019-0.43-0.067-0.632l-1.483 0.354c0.014 0.059 0.027 0.15 0.027 0.279h1.524zM23.369 25.249c-0.051-0.221-0.138-0.417-0.255-0.59l0.004 0.006-1.258 0.86c-0.003-0.004 0.011 0.015 0.026 0.077l1.483-0.354zM23.118 24.665c-0.129-0.19-0.3-0.342-0.499-0.446l-0.008-0.004-0.691 1.358c-0.024-0.012-0.044-0.029-0.061-0.048l-0-0 1.259-0.86zM22.62 24.22c-0.187-0.099-0.409-0.157-0.644-0.157-0.004 0-0.008 0-0.012 0h0.001v1.524c0.005 0 0 0-0.011-0.002-0.016-0.004-0.030-0.009-0.044-0.016l0.001 0 0.709-1.349zM21.965 24.063c-0.219 0-0.444 0.046-0.655 0.157l0.709 1.349c-0.012 0.007-0.027 0.012-0.042 0.016l-0.001 0c-0.011 0.003-0.015 0.002-0.010 0.002v-1.524zM21.314 24.218c-0.204 0.108-0.372 0.259-0.497 0.442l-0.003 0.005 1.257 0.86s-0.004 0.007-0.015 0.016c-0.012 0.011-0.026 0.021-0.041 0.029l-0.001 0.001-0.701-1.353zM20.808 24.673c-0.109 0.165-0.193 0.358-0.241 0.564l-0.002 0.012 1.483 0.354c0.015-0.065 0.030-0.087 0.029-0.084l-1.268-0.846zM20.565 25.249c-0.043 0.181-0.067 0.389-0.067 0.602 0 0.011 0 0.021 0 0.032v-0.002h1.524c0-0.13 0.012-0.219 0.026-0.279l-1.482-0.354zM20.498 25.881v0.158h1.524v-0.158h-1.524zM20.498 26.040c0 0.216 0.020 0.428 0.067 0.63l1.483-0.35c-0.017-0.077-0.027-0.166-0.027-0.257 0-0.008 0-0.016 0-0.024l-0 0.001h-1.524zM20.565 26.672c0.048 0.2 0.125 0.398 0.247 0.581l1.265-0.85s-0.004-0.005-0.009-0.019c-0.008-0.018-0.015-0.040-0.020-0.063l-0.001-0.003-1.482 0.354zM20.816 27.257c0.124 0.183 0.29 0.338 0.498 0.448l0.709-1.349c0.014 0.007 0.027 0.015 0.037 0.025 0.009 0.008 0.014 0.015 0.014 0.015l-1.258 0.86zM21.314 27.705c0.212 0.111 0.437 0.156 0.655 0.156v-1.524c-0.004 0 0 0 0.011 0.002s0.027 0.008 0.043 0.016l-0.709 1.349zM21.969 27.861c0.219 0 0.445-0.046 0.656-0.156l-0.709-1.349c0.012-0.007 0.026-0.013 0.041-0.017l0.001-0c0.011-0.002 0.015-0.002 0.011-0.002v1.524zM22.625 27.705c0.21-0.11 0.376-0.269 0.501-0.455l-1.268-0.846c0.016-0.020 0.036-0.036 0.058-0.048l0.001-0 0.709 1.349zM23.129 27.245c0.117-0.18 0.193-0.376 0.24-0.574l-1.483-0.354c-0.015 0.065-0.030 0.090-0.032 0.091l1.274 0.836zM23.369 26.67c0.048-0.202 0.067-0.414 0.067-0.63h-1.524c0 0.126-0.011 0.217-0.026 0.28l1.483 0.35zM25.499 26.58l-0.721 0.248 0.005 0.014 0.005 0.014 0.711-0.275zM25.405 26.45l-0.501 0.574 0.011 0.009 0.489-0.584zM24.887 26.211l-0.235 0.725 0.006 0.002 0.229-0.727zM24.467 26.051l-0.315 0.693 0.003 0.001 0.312-0.695zM24.119 25.843l-0.478 0.593 0.005 0.004 0.005 0.005 0.469-0.602zM23.883 25.564l-0.672 0.36 0.004 0.008 0.667-0.367zM23.886 24.827l0.67 0.362 0.002-0.004-0.673-0.358zM24.136 24.542l0.452 0.613 0.005-0.004-0.457-0.61zM24.517 24.357l-0.215-0.731h-0.002l0.216 0.731zM26.043 24.776l-0.638 0.417 0.003 0.005 0.635-0.421zM26.193 25.291v0.762h0.762v-0.762h-0.762zM25.528 25.291h-0.762v0.762h0.762v-0.762zM25.467 25.042l-0.673 0.357 0.005 0.008 0.005 0.008 0.664-0.373zM25.288 24.87l-0.356 0.674 0.005 0.002 0.35-0.677zM24.699 24.861l0.308 0.696 0.006-0.002 0.005-0.002-0.32-0.692zM24.525 25.001l0.634 0.423 0.005-0.008-0.639-0.415zM24.507 25.347l-0.654 0.392 0.005 0.008 0.005 0.008 0.644-0.408zM25.115 25.682l-0.226 0.728 0.005 0.002 0.221-0.729zM25.581 25.863l-0.341 0.682 0.003 0.002 0.338-0.683zM24.541 27.569l-0.203 0.734 0.007 0.002 0.197-0.736zM24.114 27.374l-0.429 0.629 0.003 0.002 0.427-0.632zM23.697 26.568v-0.762h-0.762v0.762h0.762zM24.369 26.568h0.762v-0.762h-0.762v0.762zM24.547 26.995l-0.462 0.606 0.008 0.005 0.454-0.611zM24.753 27.089l-0.181 0.739 0.003 0.002 0.178-0.741zM25.301 27.068l-0.301-0.699-0.005 0.002 0.307 0.697zM25.469 26.933l-0.641-0.411-0.004 0.006-0.004 0.005 0.648 0.4zM26.287 26.736c0-0.136-0.021-0.284-0.078-0.431l-1.421 0.55c-0.015-0.035-0.023-0.076-0.024-0.119v-0h1.524zM26.219 26.332c-0.067-0.187-0.179-0.344-0.323-0.464l-0.002-0.001-0.979 1.167c-0.062-0.054-0.109-0.124-0.136-0.203l-0.001-0.003 1.441-0.495zM25.905 25.875c-0.108-0.091-0.231-0.17-0.363-0.231l-0.010-0.004-0.642 1.382c0.015 0.007 0.027 0.013 0.039 0.020l-0.003-0.002-0.003-0.002c-0.006-0.005-0.012-0.010-0.018-0.015l0 0 1-1.147zM25.531 25.64c-0.112-0.052-0.249-0.105-0.391-0.15l-0.025-0.007-0.457 1.454c0.114 0.037 0.189 0.066 0.231 0.085l0.642-1.382zM25.121 25.486c-0.139-0.045-0.252-0.089-0.362-0.14l0.021 0.009-0.625 1.39c0.16 0.072 0.325 0.136 0.498 0.19l0.469-1.449zM24.782 25.357c-0.074-0.033-0.139-0.071-0.197-0.116l0.002 0.002-0.937 1.202c0.154 0.12 0.322 0.219 0.501 0.3l0.631-1.387zM24.597 25.25c-0.019-0.014-0.034-0.032-0.046-0.052l-0-0.001-1.336 0.734c0.109 0.198 0.254 0.366 0.427 0.505l0.955-1.186zM24.554 25.205c0.003 0.005 0.005 0.010 0.007 0.016l0 0.001s-0.002-0.008-0.002-0.026h-1.524c0 0.244 0.050 0.495 0.175 0.728l1.343-0.719zM24.559 25.195l0.001-0.014c-0.001 0.003-0.002 0.006-0.003 0.008l0-0-1.341-0.724c-0.124 0.23-0.181 0.478-0.181 0.73h1.524zM24.559 25.186c0.007-0.012 0.017-0.023 0.029-0.030l0-0-0.903-1.227c-0.195 0.143-0.353 0.324-0.467 0.532l-0.004 0.008 1.345 0.716zM24.594 25.151c0.040-0.028 0.086-0.050 0.136-0.064l0.003-0.001-0.432-1.461c-0.221 0.066-0.432 0.165-0.621 0.306l0.914 1.219zM24.731 25.087c0.069-0.020 0.156-0.034 0.27-0.034v-1.524c-0.238 0-0.472 0.029-0.699 0.095l0.429 1.463zM25 25.054c0.149 0 0.24 0.026 0.296 0.053l0.663-1.371c-0.271-0.13-0.59-0.206-0.926-0.206-0.011 0-0.023 0-0.034 0l0.002-0v1.524zM25.296 25.107c0.045 0.018 0.082 0.048 0.108 0.085l0 0.001 1.276-0.834c-0.18-0.269-0.424-0.482-0.711-0.619l-0.011-0.005-0.663 1.372zM25.408 25.197c0.011 0.017 0.023 0.040 0.023 0.094h1.524c0-0.331-0.088-0.652-0.277-0.937l-1.27 0.843zM26.193 24.53h-0.665v1.524h0.665v-1.524zM26.29 25.291c0-0.205-0.044-0.421-0.158-0.623l-1.328 0.747c-0.022-0.035-0.035-0.078-0.038-0.123l-0-0.001h1.524zM26.14 24.684c-0.115-0.212-0.286-0.38-0.494-0.488l-0.006-0.003-0.702 1.352c-0.061-0.035-0.11-0.085-0.143-0.145l-0.001-0.002 1.346-0.715zM25.645 24.197c-0.184-0.096-0.402-0.152-0.632-0.152-0.008 0-0.016 0-0.024 0l0.001-0v1.524c0.017 0 0.019 0.002 0.009 0-0.025-0.006-0.047-0.015-0.068-0.026l0.001 0.001 0.712-1.348zM24.99 24.045c-0.007-0-0.015-0-0.023-0-0.213 0-0.414 0.046-0.596 0.128l0.009-0.004 0.638 1.384c-0.014 0.007-0.031 0.013-0.049 0.017l-0.001 0c-0.005 0.002 0.002 0 0.021 0v-1.524zM24.391 24.164c-0.209 0.091-0.381 0.236-0.502 0.418l-0.003 0.004 1.278 0.83c-0.038 0.061-0.092 0.109-0.155 0.14l-0.002 0.001-0.616-1.394zM23.891 24.579c-0.116 0.173-0.186 0.385-0.186 0.614 0 0.002 0 0.003 0 0.005v-0h1.524c0 0 0 0 0 0 0 0.085-0.026 0.163-0.071 0.228l0.001-0.001-1.268-0.846zM23.705 25.198c0 0.185 0.046 0.372 0.149 0.541l1.307-0.783c0.049 0.081 0.069 0.168 0.069 0.242h-1.524zM23.864 25.755c0.094 0.149 0.215 0.26 0.331 0.341l0.876-1.247c0.005 0.004 0.043 0.030 0.081 0.091l-1.288 0.815zM24.194 26.096c0.109 0.076 0.227 0.137 0.343 0.187l0.597-1.402c-0.020-0.008-0.036-0.016-0.051-0.024l0.003 0.002-0.015-0.009-0.876 1.247zM24.537 26.283c0.109 0.046 0.228 0.088 0.352 0.127l0.451-1.455c-0.085-0.026-0.153-0.051-0.22-0.079l0.014 0.005-0.597 1.402zM24.894 26.411c0.145 0.044 0.259 0.089 0.347 0.133l0.681-1.364c-0.164-0.083-0.359-0.161-0.56-0.222l-0.026-0.007-0.441 1.459zM25.243 26.546c0.062 0.029 0.115 0.064 0.162 0.104l-0.001-0.001 1.030-1.123c-0.149-0.135-0.319-0.25-0.504-0.341l-0.013-0.006-0.675 1.366zM25.405 26.65c0.018 0.016 0.021 0.025 0.023 0.027l1.396-0.61c-0.095-0.212-0.226-0.392-0.387-0.539l-0.001-0.001-1.030 1.123zM25.428 26.677c-0.002-0.005 0.005 0.009 0.005 0.055h1.524c0-0.222-0.038-0.448-0.133-0.664l-1.397 0.61zM25.433 26.731c0 0 0 0 0 0 0 0.013-0.001 0.026-0.004 0.039l0-0.001c-0.001 0.006-0.002 0.006 0 0.005l1.366 0.674c0.114-0.229 0.162-0.474 0.162-0.716h-1.524zM25.429 26.774l-0.002 0.002c-0.002 0.002-0.005 0.004-0.007 0.006l-0 0 0.909 1.224c0.197-0.146 0.357-0.334 0.468-0.558l-1.367-0.674zM25.419 26.782c-0.035 0.024-0.076 0.043-0.119 0.054l-0.003 0.001 0.408 1.468c0.221-0.061 0.433-0.158 0.622-0.299l-0.909-1.224zM25.297 26.837c-0.078 0.021-0.168 0.033-0.261 0.033-0.007 0-0.014-0-0.020-0h0.001v1.524c0.235 0 0.466-0.027 0.689-0.088l-0.409-1.468zM25.016 26.869c-0.094 0-0.187-0.012-0.28-0.037l-0.392 1.473c0.22 0.059 0.444 0.088 0.672 0.088v-1.524zM24.744 26.834c-0.077-0.021-0.145-0.052-0.206-0.093l0.002 0.002-0.852 1.263c0.2 0.134 0.418 0.232 0.649 0.297l0.406-1.469zM24.544 26.745c-0.029-0.020-0.053-0.046-0.070-0.076l-0.001-0.001-1.326 0.751c0.133 0.235 0.314 0.432 0.536 0.584l0.859-1.259zM24.474 26.668c-0.003-0.006-0.006-0.013-0.008-0.021l-0-0.001c-0.005-0.022-0.008-0.047-0.008-0.073 0-0.002 0-0.004 0-0.006v0h-1.524c0 0.29 0.061 0.583 0.213 0.851l1.326-0.751zM23.697 27.33h0.672v-1.524h-0.672v1.524zM23.607 26.568c0 0.175 0.027 0.373 0.114 0.568l1.391-0.622c0.008 0.016 0.014 0.036 0.018 0.055l0 0.002c0.002 0.009 0.001 0.009 0.001-0.003h-1.524zM23.72 27.136c0.078 0.177 0.2 0.338 0.365 0.465l0.924-1.211c0.043 0.033 0.078 0.075 0.101 0.123l0.001 0.002-1.391 0.622zM24.093 27.606c0.149 0.111 0.312 0.182 0.478 0.222l0.363-1.48c0.008 0.002 0.035 0.011 0.069 0.035l-0.91 1.223zM24.574 27.829c0.147 0.035 0.296 0.050 0.442 0.050v-1.524c-0.003 0-0.006 0-0.010 0-0.027 0-0.053-0.003-0.078-0.008l0.002 0-0.357 1.481zM25.016 27.88c0.18 0 0.389-0.024 0.592-0.114l-0.613-1.394c0.029-0.013 0.048-0.016 0.050-0.017s-0.006 0.002-0.029 0.002v1.524zM25.603 27.768c0.189-0.081 0.381-0.219 0.515-0.436l-1.298-0.799c0.043-0.071 0.104-0.127 0.177-0.163l0.003-0.001 0.603 1.399zM26.11 27.343c0.12-0.187 0.177-0.398 0.177-0.607h-1.524c0-0.064 0.018-0.143 0.065-0.215l1.282 0.823zM28.103 24.336h0.762v-0.762h-0.762v0.762zM28.103 27.586v0.762h0.762v-0.762h-0.762zM27.436 27.586h-0.762v0.762h0.762v-0.762zM27.436 24.336v-0.762h-0.762v0.762h0.762zM29.103 24.336h0.762v-0.762h-0.762v0.762zM29.103 24.861v0.762h0.762v-0.762h-0.762zM26.452 24.861h-0.762v0.762h0.762v-0.762zM26.452 24.336v-0.762h-0.762v0.762h0.762zM27.341 24.336v3.25h1.524v-3.251h-1.524zM28.103 26.824h-0.667v1.524h0.667v-1.524zM28.198 27.586v-3.251h-1.524v3.25h1.524zM27.436 25.098h0.667v-1.524h-0.668v1.524zM28.341 24.336v0.525h1.524v-0.525h-1.524zM29.103 24.099h-2.651v1.524h2.651v-1.524zM27.214 24.861v-0.525h-1.524v0.525h1.524zM26.452 25.098h2.651v-1.524h-2.651v1.524zM31.666 27.064h0.762v-0.762h-0.762v0.762zM31.666 27.586v0.762h0.762v-0.762h-0.762zM29.936 27.586h-0.762v0.762h0.762v-0.762zM29.936 27.064v-0.762h-0.762v0.762h0.762zM30.155 24.336h0.762v-0.762h-0.762v0.762zM30.155 27.586v0.762h0.762v-0.762h-0.762zM29.484 27.586h-0.762v0.762h0.762v-0.762zM29.484 24.336v-0.762h-0.762v0.762h0.762zM31.44 25.66h0.762v-0.762h-0.762v0.762zM31.44 26.169v0.762h0.762v-0.762h-0.762zM29.936 26.169h-0.762v0.762h0.762v-0.762zM29.936 25.66v-0.762h-0.762v0.762h0.762zM31.663 24.336h0.762v-0.762h-0.762v0.762zM31.663 24.861v0.762h0.762v-0.762h-0.762zM29.936 24.861h-0.762v0.762h0.762v-0.762zM29.936 24.336v-0.762h-0.762v0.762h0.762zM30.904 27.064v0.523h1.524v-0.523h-1.524zM31.666 26.824h-1.73v1.524h1.73v-1.524zM30.698 27.586v-0.523h-1.524v0.523h1.524zM29.936 27.826h1.73v-1.524h-1.73v1.524zM29.393 24.336v3.25h1.524v-3.251h-1.524zM30.155 26.824h-0.67v1.524h0.67v-1.524zM30.246 27.586v-3.251h-1.524v3.25h1.524zM29.484 25.098h0.67v-1.524h-0.67v1.524zM30.678 25.66v0.509h1.524v-0.509h-1.524zM31.44 25.407h-1.504v1.524h1.504v-1.524zM30.698 26.169v-0.509h-1.524v0.509h1.524zM29.936 26.422h1.504v-1.524h-1.504v1.524zM30.901 24.336v0.525h1.524v-0.525h-1.524zM31.663 24.099h-1.727v1.524h1.727v-1.524zM30.698 24.861v-0.525h-1.524v0.525h1.524zM29.936 25.098h1.727v-1.524h-1.727v1.524zM32.056 24.336v-0.762h-0.762v0.762h0.762zM33.909 24.448l-0.293 0.703 0.002 0.001 0.291-0.704zM34.38 25.765l-0.688-0.328-0.002 0.004 0.69 0.324zM34.133 26.075l0.466 0.603 0.002-0.001-0.468-0.602zM33.759 26.271l-0.248-0.72-0.055 0.019-0.052 0.027 0.354 0.674zM33.547 26.383v0.762h0.188l0.167-0.088-0.355-0.674zM32.494 26.383l-0.762 0.006 0.007 0.756h0.755v-0.762zM32.489 25.861v-0.762h-0.768l0.006 0.769 0.762-0.007zM33.739 25.624l-0.67-0.362-0.003 0.005-0.002 0.005 0.676 0.352zM32.725 24.861v-0.762h-0.762v0.762h0.762zM32.725 27.586v0.762h0.762v-0.762h-0.762zM32.056 27.586h-0.762v0.762h0.762v-0.762zM33.874 27.586l-0.678 0.347 0.212 0.415h0.466v-0.762zM33.132 26.138l-0.005-0.762-1.237 0.008 0.563 1.101 0.678-0.347zM33.84 26.133l0.674-0.356-0.216-0.409-0.463 0.003 0.005 0.762zM34.59 27.555h0.762v-0.189l-0.088-0.167-0.674 0.356zM34.59 27.586v0.762h0.762v-0.762h-0.762zM32.056 25.098h1.211v-1.524h-1.211v1.524zM33.268 25.098c0.175 0 0.285 0.027 0.348 0.053l0.587-1.406c-0.264-0.108-0.571-0.171-0.893-0.171-0.014 0-0.029 0-0.043 0l0.002-0v1.524zM33.618 25.152c0.056 0.023 0.068 0.042 0.071 0.047l1.27-0.842c-0.186-0.274-0.444-0.485-0.748-0.609l-0.011-0.004-0.582 1.408zM33.689 25.199s0.004 0.006 0.008 0.021c0.007 0.027 0.011 0.057 0.011 0.089 0 0.002-0 0.004-0 0.007v-0h1.524c0-0.33-0.076-0.663-0.272-0.958l-1.27 0.842zM33.707 25.316c0 0 0 0.001 0 0.001 0 0.043-0.006 0.085-0.016 0.124l0.001-0.003 1.376 0.655c0.119-0.251 0.163-0.518 0.163-0.777h-1.524zM33.691 25.441c-0.006 0.013-0.015 0.024-0.026 0.033l-0 0 0.935 1.203c0.203-0.158 0.361-0.357 0.47-0.587l-1.379-0.648zM33.666 25.473c-0.044 0.033-0.095 0.059-0.15 0.077l-0.004 0.001 0.495 1.441c0.212-0.073 0.412-0.175 0.592-0.315l-0.933-1.205zM33.405 25.597l-0.213 0.112 0.71 1.349 0.212-0.112-0.709-1.349zM33.547 25.621h-1.054v1.524h1.054v-1.524zM33.256 26.376l-0.005-0.522-1.524 0.013 0.005 0.522 1.524-0.013zM32.489 26.622h0.784v-1.524h-0.784v1.524zM33.273 26.622c0.203 0 0.434-0.035 0.654-0.153l-0.723-1.342c0.065-0.035 0.101-0.029 0.069-0.029v1.524zM33.927 26.469c0.205-0.11 0.376-0.277 0.488-0.494l-1.352-0.703c0.033-0.061 0.081-0.11 0.138-0.144l0.002-0.001 0.723 1.341zM34.41 25.986c0.109-0.203 0.152-0.417 0.152-0.621h-1.524c0-0.008 0.002-0.050 0.031-0.103l1.341 0.724zM34.562 25.365c0-0.198-0.037-0.411-0.141-0.616l-1.358 0.693c-0.027-0.053-0.025-0.087-0.025-0.076h1.524zM34.421 24.749c-0.114-0.22-0.289-0.394-0.503-0.504l-0.007-0.003-0.692 1.358c-0.067-0.036-0.121-0.091-0.155-0.156l-0.001-0.002 1.358-0.693zM33.911 24.242c-0.181-0.090-0.394-0.143-0.619-0.143-0.008 0-0.017 0-0.025 0l0.001-0v1.524c0.018 0 0.020 0.002 0.011 0-0.023-0.005-0.043-0.013-0.062-0.023l0.001 0.001 0.692-1.358zM33.269 24.099h-0.542v1.524h0.542v-1.524zM31.964 24.861v2.725h1.524v-2.725h-1.524zM32.726 26.824h-0.67v1.524h0.67v-1.524zM32.818 27.586v-3.251h-1.524v3.25h1.524zM34.552 27.239l-0.741-1.448-1.356 0.693 0.741 1.448 1.357-0.693zM33.137 26.9l0.709-0.005-0.011-1.524-0.707 0.005 0.009 1.524zM33.166 26.488l0.75 1.422 1.348-0.711-0.75-1.422-1.348 0.711zM33.829 27.555v0.030h1.524v-0.030h-1.524zM34.59 26.824h-0.717v1.524h0.716v-1.524zM36.561 26.427h-0.762v0.762h0.762v-0.762zM36.561 25.906v-0.762h-0.762v0.762h0.762zM37.701 25.843l0.35 0.677 0.005-0.003 0.005-0.002-0.36-0.671zM36.793 24.86v-0.762h-0.762v0.762h0.762zM36.793 27.586v0.762h0.762v-0.762h-0.762zM36.123 27.586h-0.762v0.762h0.762v-0.762zM36.123 24.336v-0.762h-0.762v0.762h0.762zM38.043 24.475l-0.345 0.68 0.008 0.003 0.338-0.683zM38.043 26.303l-0.315-0.693h-0.002l0.318 0.693zM37.389 25.666h-0.828v1.524h0.828v-1.524zM37.323 26.427v-0.522h-1.524v0.522h1.524zM36.561 26.667h0.828v-1.524h-0.828v1.524zM37.389 26.667c0.203 0 0.439-0.032 0.663-0.148l-0.701-1.353c0.018-0.010 0.039-0.018 0.061-0.023l0.002-0c0.006-0.002-0.001 0-0.024 0v1.524zM38.062 26.514c0.209-0.112 0.387-0.284 0.5-0.514l-1.368-0.67c0.033-0.066 0.084-0.12 0.145-0.157l0.002-0.001 0.721 1.342zM38.562 26c0.095-0.194 0.134-0.396 0.134-0.593h-1.524c0-0.002 0-0.011 0.003-0.026 0.005-0.020 0.011-0.037 0.020-0.054l-0.001 0.001 1.368 0.67zM38.696 25.407c0-0.197-0.038-0.393-0.122-0.581l-1.392 0.622c-0.005-0.012-0.009-0.026-0.010-0.041l-0-0h1.524zM38.574 24.827c-0.102-0.224-0.262-0.406-0.461-0.532l-0.005-0.003-0.812 1.29c-0.049-0.033-0.088-0.078-0.113-0.131l-0.001-0.002 1.392-0.622zM38.107 24.292c-0.197-0.121-0.436-0.193-0.691-0.193-0.010 0-0.019 0-0.028 0l0.001-0v1.524c0.033 0-0.017 0.007-0.094-0.041l0.812-1.29zM37.389 24.099h-0.596v1.524h0.596v-1.524zM36.031 24.861v2.725h1.524v-2.725h-1.524zM36.793 26.824h-0.67v1.524h0.67v-1.524zM36.885 27.586v-3.251h-1.524v3.25h1.524zM36.123 25.098h1.266v-1.524h-1.266v1.524zM37.389 25.098c0.164 0 0.258 0.030 0.309 0.056l0.69-1.358c-0.28-0.14-0.61-0.221-0.959-0.221-0.014 0-0.028 0-0.042 0l0.002-0v1.524zM37.704 25.157c0.044 0.018 0.080 0.049 0.105 0.087l0.001 0.001 1.306-0.786c-0.177-0.288-0.426-0.516-0.723-0.662l-0.010-0.005-0.677 1.365zM37.81 25.245c0.018 0.030 0.037 0.075 0.037 0.158h1.524c0-0.331-0.079-0.653-0.254-0.945l-1.306 0.786zM37.846 25.403c0 0.089-0.020 0.124-0.028 0.137l1.289 0.814c0.185-0.293 0.263-0.62 0.263-0.951h-1.524zM37.818 25.541c-0.008 0.015-0.027 0.040-0.091 0.069l0.632 1.387c0.302-0.137 0.564-0.349 0.748-0.642l-1.289-0.813zM37.725 25.611c-0.059 0.027-0.162 0.055-0.336 0.055v1.524c0.335 0 0.667-0.054 0.972-0.194l-0.636-1.384zM41.25 27.064h0.762v-0.762h-0.762v0.762zM41.25 27.586v0.762h0.762v-0.762h-0.762zM39.521 27.586h-0.762v0.762h0.762v-0.762zM39.521 27.064v-0.762h-0.762v0.762h0.762zM39.739 24.336h0.762v-0.762h-0.762v0.762zM39.739 27.586v0.762h0.762v-0.762h-0.762zM39.070 27.586h-0.762v0.762h0.762v-0.762zM39.070 24.336v-0.762h-0.762v0.762h0.762zM41.025 25.66h0.762v-0.762h-0.762v0.762zM41.025 26.169v0.762h0.762v-0.762h-0.762zM39.521 26.169h-0.762v0.762h0.762v-0.762zM39.521 25.66v-0.762h-0.762v0.762h0.762zM41.248 24.336h0.762v-0.762h-0.762v0.762zM41.248 24.861v0.762h0.762v-0.762h-0.762zM39.521 24.861h-0.762v0.762h0.762v-0.762zM39.521 24.336v-0.762h-0.762v0.762h0.762zM40.488 27.064v0.523h1.524v-0.523h-1.524zM41.25 26.824h-1.73v1.524h1.73v-1.524zM40.283 27.586v-0.523h-1.524v0.523h1.524zM39.521 27.826h1.73v-1.524h-1.73v1.524zM38.978 24.336v3.25h1.524v-3.251h-1.524zM39.739 26.824h-0.67v1.524h0.67v-1.524zM39.832 27.586v-3.251h-1.524v3.25h1.524zM39.070 25.098h0.67v-1.524h-0.67v1.524zM40.263 25.66v0.509h1.524v-0.509h-1.524zM41.025 25.407h-1.504v1.524h1.504v-1.524zM40.283 26.169v-0.509h-1.524v0.509h1.524zM39.521 26.422h1.504v-1.524h-1.504v1.524zM40.486 24.336v0.525h1.524v-0.525h-1.524zM41.248 24.099h-1.727v1.524h1.727v-1.524zM40.283 24.861v-0.525h-1.524v0.525h1.524zM39.521 25.098h1.727v-1.524h-1.727v1.524zM43.139 24.336h0.762v-0.762h-0.762v0.762zM43.139 27.586v0.762h0.762v-0.762h-0.762zM42.472 27.586h-0.762v0.762h0.762v-0.762zM42.472 24.336v-0.762h-0.762v0.762h0.762zM44.139 24.336h0.762v-0.762h-0.762v0.762zM44.139 24.861v0.762h0.762v-0.762h-0.762zM41.487 24.861h-0.762v0.762h0.762v-0.762zM41.487 24.336v-0.762h-0.762v0.762h0.762zM42.377 24.336v3.25h1.524v-3.251h-1.524zM43.139 26.824h-0.667v1.524h0.667v-1.524zM43.234 27.586v-3.251h-1.524v3.25h1.524zM42.472 25.098h0.667v-1.524h-0.667v1.524zM43.377 24.336v0.525h1.524v-0.525h-1.524zM44.139 24.099h-2.651v1.524h2.651v-1.524zM42.249 24.861v-0.525h-1.524v0.525h1.524zM41.487 25.098h2.651v-1.524h-2.651v1.524zM46.702 27.064h0.762v-0.762h-0.762v0.762zM46.702 27.586v0.762h0.762v-0.762h-0.762zM44.972 27.586h-0.762v0.762h0.762v-0.762zM44.972 27.064v-0.762h-0.762v0.762h0.762zM45.19 24.336h0.762v-0.762h-0.762v0.762zM45.19 27.586v0.762h0.762v-0.762h-0.762zM44.52 27.586h-0.762v0.762h0.762v-0.762zM44.52 24.336v-0.762h-0.762v0.762h0.762zM46.476 25.661h0.762v-0.762h-0.762v0.762zM46.476 26.17v0.762h0.762v-0.762h-0.762zM44.971 26.17h-0.762v0.762h0.762v-0.762zM44.971 25.661v-0.762h-0.762v0.762h0.762zM46.699 24.337h0.762v-0.762h-0.762v0.762zM46.699 24.862v0.762h0.762v-0.762h-0.762zM44.971 24.862h-0.762v0.762h0.762v-0.762zM44.971 24.337v-0.762h-0.762v0.762h0.762zM45.939 27.064v0.523h1.524v-0.523h-1.524zM46.701 26.825h-1.73v1.524h1.73v-1.524zM45.733 27.587v-0.523h-1.524v0.523h1.524zM44.971 27.826h1.73v-1.524h-1.73v1.524zM44.428 24.337v3.25h1.524v-3.252h-1.524zM45.19 26.825h-0.67v1.524h0.67v-1.524zM45.282 27.587v-3.252h-1.524v3.25h1.524zM44.52 25.099h0.67v-1.524h-0.67v1.524zM45.714 25.661v0.509h1.524v-0.509h-1.524zM46.476 25.408h-1.505v1.524h1.505v-1.524zM45.733 26.17v-0.509h-1.524v0.509h1.524zM44.971 26.423h1.505v-1.524h-1.505v1.524zM45.938 24.337v0.525h1.524v-0.525h-1.524zM46.699 24.1h-1.728v1.524h1.728v-1.524zM45.733 24.862v-0.525h-1.524v0.525h1.524zM44.971 25.099h1.728v-1.524h-1.728v1.524zM47.092 24.337v-0.762h-0.762v0.762h0.762zM48.945 24.449l-0.293 0.703 0.002 0.001 0.291-0.704zM49.416 25.765l-0.688-0.328-0.002 0.004 0.69 0.324zM49.168 26.075l0.466 0.603 0.002-0.001-0.468-0.602zM48.795 26.272l-0.247-0.72-0.056 0.019-0.052 0.027 0.355 0.674zM48.583 26.384v0.762h0.188l0.168-0.088-0.356-0.674zM47.529 26.384l-0.762 0.006 0.008 0.756h0.754v-0.762zM47.525 25.861v-0.762h-0.769l0.007 0.769 0.762-0.007zM48.775 25.625l-0.67-0.362-0.002 0.005-0.003 0.005 0.676 0.352zM47.762 24.862v-0.762h-0.762v0.762h0.762zM47.762 27.587v0.762h0.762v-0.762h-0.762zM47.092 27.587h-0.762v0.762h0.762v-0.762zM48.909 27.587l-0.678 0.347 0.212 0.415h0.466v-0.762zM48.168 26.139l-0.005-0.762-1.237 0.008 0.564 1.101 0.678-0.347zM48.876 26.134l0.674-0.356-0.216-0.409-0.462 0.003 0.005 0.762zM49.625 27.556h0.762v-0.189l-0.088-0.167-0.674 0.356zM49.625 27.586v0.762h0.762v-0.762h-0.762zM47.092 25.099h1.213v-1.524h-1.211v1.524zM48.304 25.099c0.175 0 0.284 0.027 0.347 0.053l0.587-1.406c-0.264-0.108-0.571-0.171-0.893-0.171-0.014 0-0.029 0-0.043 0l0.002-0v1.524zM48.654 25.153c0.056 0.023 0.067 0.042 0.071 0.047l1.269-0.842c-0.185-0.274-0.444-0.486-0.748-0.609l-0.011-0.004-0.582 1.408zM48.725 25.2s0.004 0.006 0.008 0.021c0.006 0.026 0.010 0.055 0.010 0.086 0 0.003-0 0.006-0 0.010v-0h1.524c0-0.33-0.076-0.663-0.272-0.958l-1.269 0.842zM48.743 25.317c0 0.002 0 0.005 0 0.008 0 0.031-0.003 0.061-0.008 0.090l0-0.003c-0.002 0.010-0.004 0.019-0.008 0.027l0-0.001 1.376 0.655c0.119-0.25 0.163-0.517 0.163-0.776h-1.524zM48.726 25.442c-0.006 0.013-0.015 0.024-0.026 0.033l-0 0 0.936 1.203c0.203-0.158 0.36-0.357 0.469-0.587l-1.379-0.648zM48.701 25.474c-0.044 0.033-0.095 0.059-0.149 0.077l-0.004 0.001 0.495 1.441c0.212-0.073 0.411-0.175 0.591-0.315l-0.933-1.205zM48.44 25.598l-0.212 0.112 0.709 1.349 0.212-0.112-0.709-1.349zM48.583 25.622h-1.054v1.524h1.054v-1.524zM48.291 26.377l-0.004-0.522-1.524 0.013 0.005 0.522 1.524-0.013zM47.525 26.623h0.783v-1.524h-0.783v1.524zM48.309 26.623c0.203 0 0.434-0.035 0.654-0.153l-0.722-1.342c0.065-0.035 0.101-0.029 0.069-0.029v1.524zM48.962 26.47c0.206-0.11 0.376-0.277 0.488-0.494l-1.352-0.703c0.033-0.061 0.081-0.11 0.139-0.144l0.002-0.001 0.722 1.341zM49.445 25.987c0.11-0.203 0.152-0.417 0.152-0.621h-1.524c0.002-0.038 0.013-0.073 0.031-0.104l-0.001 0.001 1.341 0.724zM49.598 25.366c0-0.198-0.038-0.411-0.142-0.616l-1.358 0.693c-0.027-0.053-0.025-0.087-0.025-0.076h1.524zM49.456 24.75c-0.114-0.22-0.289-0.394-0.502-0.504l-0.007-0.003-0.692 1.358c-0.067-0.036-0.121-0.091-0.156-0.156l-0.001-0.002 1.358-0.693zM48.947 24.243c-0.181-0.090-0.394-0.143-0.619-0.143-0.009 0-0.017 0-0.026 0l0.001-0v1.524c0.018 0 0.021 0.002 0.012 0-0.023-0.005-0.043-0.013-0.062-0.023l0.001 0.001 0.692-1.358zM48.304 24.1h-0.542v1.524h0.542v-1.524zM47 24.862v2.725h1.524v-2.726h-1.524zM47.762 26.825h-0.67v1.524h0.67v-1.524zM47.854 27.587v-3.252h-1.524v3.25h1.524zM49.587 27.24l-0.741-1.448-1.356 0.693 0.741 1.448 1.356-0.693zM48.173 26.901l0.708-0.005-0.010-1.524-0.708 0.005 0.010 1.524zM48.202 26.489l0.75 1.422 1.348-0.711-0.75-1.422-1.349 0.711zM48.863 27.556v0.030h1.524v-0.030h-1.524zM49.625 26.824h-0.716v1.524h0.716v-1.524zM51.686 26.581l-0.721 0.248 0.005 0.014 0.005 0.014 0.711-0.275zM51.592 26.451l-0.501 0.574 0.011 0.009 0.49-0.584zM51.074 26.212l-0.235 0.725 0.006 0.002 0.229-0.727zM50.655 26.052l-0.316 0.693 0.003 0.001 0.312-0.695zM50.306 25.844l-0.478 0.593 0.005 0.004 0.005 0.005 0.469-0.602zM50.070 25.565l-0.672 0.36 0.004 0.008 0.667-0.367zM50.074 24.828l0.67 0.362 0.002-0.004-0.673-0.358zM50.325 24.542l0.451 0.613 0.005-0.004-0.457-0.61zM50.704 24.357l-0.215-0.731h-0.002l0.216 0.731zM52.23 24.776l-0.638 0.417 0.003 0.005 0.635-0.421zM52.38 25.292v0.762h0.762v-0.762h-0.762zM51.715 25.292h-0.762v0.762h0.762v-0.762zM51.654 25.042l-0.673 0.357 0.005 0.008 0.005 0.008 0.664-0.373zM51.476 24.871l-0.356 0.674 0.005 0.002 0.35-0.677zM50.887 24.862l0.308 0.696 0.006-0.002 0.005-0.002-0.32-0.692zM50.712 25.002l0.634 0.423 0.005-0.008-0.639-0.415zM50.695 25.348l-0.654 0.392 0.005 0.008 0.005 0.008 0.644-0.408zM51.302 25.683l-0.226 0.728 0.005 0.002 0.221-0.729zM51.768 25.864l-0.341 0.682 0.003 0.002 0.338-0.683zM50.728 27.57l-0.203 0.734 0.006 0.002 0.197-0.736zM50.302 27.375l-0.429 0.629 0.003 0.002 0.427-0.632zM49.884 26.569v-0.762h-0.762v0.762h0.762zM50.556 26.569h0.762v-0.762h-0.762v0.762zM50.735 26.996l-0.462 0.606 0.008 0.005 0.455-0.611zM50.941 27.090l-0.183 0.739 0.004 0.002 0.178-0.741zM51.49 27.069l-0.302-0.699-0.005 0.002 0.307 0.697zM51.657 26.933l-0.642-0.411-0.004 0.006-0.004 0.005 0.649 0.4zM52.475 26.737c0-0.136-0.021-0.284-0.078-0.431l-1.421 0.55c-0.015-0.035-0.023-0.076-0.024-0.119v-0h1.524zM52.406 26.333c-0.067-0.187-0.179-0.344-0.323-0.464l-0.002-0.001-0.979 1.167c-0.062-0.054-0.109-0.124-0.136-0.203l-0.001-0.003 1.441-0.495zM52.092 25.876c-0.108-0.091-0.231-0.17-0.363-0.231l-0.010-0.004-0.642 1.382c0.015 0.007 0.027 0.014 0.038 0.020l-0.003-0.002-0.003-0.002c-0.006-0.005-0.012-0.010-0.018-0.015l0 0 1-1.148zM51.719 25.641c-0.112-0.052-0.249-0.105-0.391-0.15l-0.025-0.007-0.457 1.454c0.114 0.037 0.189 0.066 0.232 0.085l0.642-1.382zM51.309 25.487c-0.14-0.045-0.253-0.089-0.363-0.14l0.021 0.009-0.625 1.39c0.16 0.072 0.325 0.136 0.498 0.19l0.469-1.449zM50.97 25.358c-0.074-0.033-0.139-0.071-0.197-0.116l0.002 0.002-0.937 1.202c0.154 0.12 0.322 0.219 0.501 0.3l0.631-1.387zM50.785 25.251c-0.019-0.014-0.035-0.032-0.047-0.052l-0-0.001-1.336 0.734c0.109 0.198 0.254 0.366 0.427 0.505l0.956-1.186zM50.741 25.205c0.003 0.005 0.005 0.010 0.007 0.016l0 0.001s-0.002-0.008-0.002-0.026h-1.524c0 0.244 0.050 0.495 0.175 0.728l1.343-0.719zM50.747 25.196l0.001-0.014-0.001 0.003c-0.001 0.002-0.002 0.003-0.002 0.005l0-0-1.341-0.724c-0.124 0.23-0.181 0.478-0.181 0.73h1.524zM50.747 25.186c0.007-0.012 0.017-0.023 0.029-0.030l0-0-0.903-1.227c-0.195 0.143-0.353 0.324-0.467 0.532l-0.004 0.008 1.345 0.716zM50.781 25.152c0.040-0.028 0.086-0.050 0.136-0.064l0.003-0.001-0.432-1.461c-0.221 0.066-0.432 0.165-0.62 0.306l0.914 1.219zM50.918 25.088c0.069-0.020 0.157-0.034 0.27-0.034v-1.524c-0.238 0-0.472 0.029-0.699 0.095l0.429 1.463zM51.188 25.054c0.149 0 0.24 0.026 0.296 0.053l0.663-1.371c-0.271-0.13-0.59-0.206-0.926-0.206-0.011 0-0.023 0-0.034 0l0.002-0v1.524zM51.483 25.108c0.045 0.018 0.082 0.047 0.108 0.085l0.001 0.001 1.276-0.834c-0.18-0.269-0.424-0.482-0.711-0.619l-0.011-0.005-0.663 1.372zM51.595 25.198c0.011 0.017 0.023 0.040 0.023 0.094h1.524c0-0.331-0.088-0.652-0.277-0.937l-1.27 0.843zM52.38 24.53h-0.665v1.524h0.665v-1.524zM52.477 25.292c0-0.205-0.044-0.421-0.158-0.623l-1.328 0.747c-0.022-0.035-0.035-0.078-0.038-0.123l-0-0.001h1.524zM52.328 24.685c-0.115-0.212-0.287-0.38-0.495-0.488l-0.007-0.003-0.701 1.352c-0.061-0.035-0.11-0.085-0.143-0.145l-0.001-0.002 1.346-0.715zM51.832 24.197c-0.184-0.096-0.402-0.152-0.632-0.152-0.008 0-0.016 0-0.024 0l0.001-0v1.524c0.017 0 0.019 0.002 0.009 0-0.025-0.006-0.047-0.015-0.068-0.026l0.001 0.001 0.712-1.348zM51.177 24.046c-0.007-0-0.015-0-0.023-0-0.213 0-0.414 0.046-0.596 0.128l0.009-0.004 0.638 1.384c-0.014 0.007-0.031 0.013-0.049 0.017l-0.001 0c-0.005 0.002 0.002 0 0.021 0v-1.524zM50.578 24.165c-0.209 0.091-0.381 0.236-0.502 0.418l-0.003 0.004 1.278 0.83c-0.038 0.061-0.092 0.109-0.155 0.14l-0.002 0.001-0.616-1.394zM50.078 24.58c-0.116 0.173-0.186 0.385-0.186 0.614 0 0.002 0 0.003 0 0.005v-0h1.524c0 0 0 0 0 0 0 0.085-0.026 0.163-0.071 0.228l0.001-0.001-1.268-0.846zM49.893 25.198c0 0.185 0.047 0.372 0.149 0.541l1.307-0.783c0.049 0.081 0.069 0.168 0.069 0.242h-1.524zM50.051 25.755c0.094 0.149 0.215 0.26 0.331 0.341l0.876-1.247c0.005 0.004 0.043 0.030 0.081 0.091l-1.288 0.815zM50.382 26.097c0.109 0.076 0.227 0.137 0.343 0.187l0.597-1.402c-0.020-0.008-0.036-0.016-0.051-0.024l0.003 0.002-0.015-0.009-0.876 1.247zM50.725 26.283c0.109 0.046 0.228 0.088 0.352 0.127l0.451-1.455c-0.085-0.026-0.153-0.051-0.22-0.079l0.014 0.005-0.597 1.402zM51.081 26.412c0.145 0.044 0.259 0.089 0.347 0.133l0.681-1.364c-0.164-0.083-0.359-0.161-0.56-0.222l-0.026-0.007-0.441 1.459zM51.431 26.547c0.062 0.029 0.115 0.064 0.162 0.104l-0.001-0.001 1.031-1.123c-0.149-0.135-0.32-0.25-0.504-0.341l-0.013-0.006-0.675 1.366zM51.592 26.651c0.018 0.016 0.021 0.025 0.023 0.027l1.396-0.61c-0.095-0.212-0.226-0.392-0.387-0.539l-0.001-0.001-1.030 1.123zM51.615 26.677c-0.002-0.005 0.005 0.009 0.005 0.055h1.524c0-0.222-0.038-0.448-0.133-0.664l-1.397 0.61zM51.621 26.732c0 0.001 0 0.003 0 0.004 0 0.012-0.001 0.024-0.003 0.035l0-0.001-0.002 0.005 1.367 0.674c0.102-0.205 0.162-0.447 0.162-0.702 0-0.005-0-0.010-0-0.015v0.001h-1.524zM51.617 26.775h-0.001l-0.002 0.002c-0.002 0.002-0.005 0.004-0.007 0.006l-0 0 0.909 1.224c0.197-0.146 0.357-0.334 0.468-0.558l-1.367-0.674zM51.607 26.783c-0.035 0.024-0.077 0.043-0.121 0.054l-0.003 0 0.409 1.468c0.221-0.061 0.433-0.158 0.622-0.299l-0.908-1.224zM51.483 26.837c-0.078 0.021-0.168 0.033-0.261 0.033-0.007 0-0.013-0-0.020-0h0.001v1.524c0.235 0 0.466-0.027 0.689-0.088l-0.409-1.468zM51.204 26.87c-0.094 0-0.187-0.012-0.28-0.037l-0.392 1.473c0.22 0.059 0.444 0.088 0.672 0.088v-1.524zM50.931 26.835c-0.077-0.021-0.145-0.052-0.206-0.093l0.002 0.002-0.852 1.263c0.2 0.134 0.418 0.232 0.65 0.297l0.405-1.469zM50.731 26.746c-0.029-0.020-0.053-0.046-0.070-0.076l-0.001-0.001-1.326 0.751c0.133 0.235 0.314 0.432 0.537 0.584l0.859-1.259zM50.661 26.669c-0.003-0.006-0.006-0.013-0.008-0.021l-0-0.001c-0.005-0.022-0.008-0.047-0.008-0.073 0-0.002 0-0.004 0-0.006v0h-1.524c0 0.29 0.061 0.583 0.213 0.851l1.326-0.751zM49.884 27.331h0.672v-1.524h-0.672v1.524zM49.794 26.569c0 0.175 0.027 0.373 0.114 0.568l1.391-0.622c0.008 0.016 0.014 0.036 0.018 0.055l0 0.002c0.002 0.009 0.001 0.009 0.001-0.003h-1.524zM49.908 27.137c0.078 0.177 0.2 0.338 0.365 0.465l0.924-1.211c0.043 0.033 0.078 0.075 0.101 0.123l0.001 0.002-1.391 0.622zM50.28 27.607c0.149 0.111 0.312 0.182 0.478 0.222l0.363-1.48c0.008 0.002 0.035 0.011 0.069 0.035l-0.91 1.223zM50.762 27.83c0.147 0.035 0.296 0.050 0.442 0.050v-1.524c-0.003 0-0.006 0-0.010 0-0.027 0-0.053-0.003-0.078-0.008l0.002 0-0.357 1.481zM51.204 27.88c0.18 0 0.389-0.024 0.593-0.114l-0.614-1.394c0.029-0.013 0.048-0.016 0.050-0.017s-0.006 0.002-0.029 0.002v1.524zM51.79 27.768c0.189-0.081 0.381-0.219 0.515-0.436l-1.298-0.799c0.043-0.071 0.104-0.127 0.177-0.163l0.002-0.001 0.603 1.399zM52.298 27.344c0.121-0.187 0.177-0.398 0.177-0.607h-1.524c0-0.064 0.018-0.143 0.065-0.215l1.282 0.823z"></path>
</svg>
